# xmcd
#
# Track frame offsets: 
#        150
#        32548
#        68057
#        116693
#        158363
#        200134
#        247092
#
# Disc length: 3691 seconds
#
# Revision: 0
# Processed by: cddbd v1.5.2PL0 Copyright (c) Steve Scherf et al.
# Submitted via: ExactAudioCopy v0.95b4
#
DISCID=590e6907
DTITLE=Wayne Goins - Bluesin' with the B3
DYEAR=2005
DGENRE=Blues
TTITLE0=Blues for J.
TTITLE1=Blue Bossa
TTITLE2=Soupbone
TTITLE3=A GoGo
TTITLE4=All the Things You Are
TTITLE5=In a Sentimental Mood
TTITLE6=Back at the Chicken Shack
EXTD=
EXTT0=
EXTT1=
EXTT2=
EXTT3=
EXTT4=
EXTT5=
EXTT6=
PLAYORDER=
